<?xml version="1.0" encoding="UTF-8"?>
<svg version="1.1" xmlns="http://www.w3.org/2000/svg" width="192" height="192">
<path d="M0 0 C0.95648438 0.33773438 1.91296875 0.67546875 2.8984375 1.0234375 C10.53573787 3.94877877 16.57901901 7.99044208 23 13 C24.37460625 13.97971936 25.749572 14.95893463 27.125 15.9375 C45.47426161 29.85892343 57.28927335 52.45466329 61 75 C61.36484042 79.61656605 61.47534448 84.20149451 61.44604492 88.82861328 C61.4375324 90.86724075 61.46643499 92.90305258 61.49804688 94.94140625 C61.62160823 118.31506672 52.07242278 139.28801715 36 156 C35.31679687 156.72316406 34.63359375 157.44632813 33.9296875 158.19140625 C27.08138677 165.26798367 19.71766194 170.46497727 11 175 C10.31808594 175.3609375 9.63617188 175.721875 8.93359375 176.09375 C-4.40382956 182.98431703 -17.87275474 185.55716567 -32.875 185.4375 C-33.53297577 185.43479095 -34.19095154 185.43208191 -34.86886597 185.42929077 C-44.90979061 185.36662742 -53.57186355 184.61610803 -63 181 C-64.05960937 180.66097656 -65.11921875 180.32195312 -66.2109375 179.97265625 C-72.91353421 177.69247504 -78.81610188 174.52023197 -84.8125 170.8125 C-85.88165649 170.15193604 -85.88165649 170.15193604 -86.97241211 169.47802734 C-88.68845505 168.37903367 -90.35040991 167.19642927 -92 166 C-92 165.34 -92 164.68 -92 164 C-92.99 164 -93.98 164 -95 164 C-96.72922877 162.39833729 -98.38833542 160.71991071 -100 159 C-100.80179688 158.23300781 -101.60359375 157.46601563 -102.4296875 156.67578125 C-119.15126902 140.51514735 -128.72993821 120.37930727 -129.16796875 97.07421875 C-129.17978858 94.94533536 -129.18620897 92.81641581 -129.1875 90.6875 C-129.19974609 89.63626953 -129.21199219 88.58503906 -129.22460938 87.50195312 C-129.25820509 69.28187601 -124.10979835 53.56804156 -115 38 C-114.34 38 -113.68 38 -113 38 C-113 37.01 -113 36.02 -113 35 C-112.34 35 -111.68 35 -111 35 C-110.690625 33.9790625 -110.690625 33.9790625 -110.375 32.9375 C-106.50648825 24.67295218 -98.40086787 18.09769322 -91 13 C-90.34 13 -89.68 13 -89 13 C-89 12.34 -89 11.68 -89 11 C-88.43152344 10.68546875 -87.86304688 10.3709375 -87.27734375 10.046875 C-86.11912109 9.40492187 -86.11912109 9.40492187 -84.9375 8.75 C-83.68646484 8.06164062 -83.68646484 8.06164062 -82.41015625 7.359375 C-80.53027842 6.29908734 -78.69285323 5.16342607 -76.875 4 C-54.87376194 -8.49954864 -23.30173444 -8.29628316 0 0 Z " fill="#F9DE36" transform="translate(131,7)"/>
<path d="M0 0 C0.95648438 0.33773438 1.91296875 0.67546875 2.8984375 1.0234375 C10.53573787 3.94877877 16.57901901 7.99044208 23 13 C24.37460625 13.97971936 25.749572 14.95893463 27.125 15.9375 C45.47426161 29.85892343 57.28927335 52.45466329 61 75 C61.36484042 79.61656605 61.47534448 84.20149451 61.44604492 88.82861328 C61.4375324 90.86724075 61.46643499 92.90305258 61.49804688 94.94140625 C61.62160823 118.31506672 52.07242278 139.28801715 36 156 C35.31679687 156.72316406 34.63359375 157.44632813 33.9296875 158.19140625 C27.08138677 165.26798367 19.71766194 170.46497727 11 175 C10.31808594 175.3609375 9.63617188 175.721875 8.93359375 176.09375 C-4.40382956 182.98431703 -17.87275474 185.55716567 -32.875 185.4375 C-33.53297577 185.43479095 -34.19095154 185.43208191 -34.86886597 185.42929077 C-44.90979061 185.36662742 -53.57186355 184.61610803 -63 181 C-64.05960937 180.66097656 -65.11921875 180.32195312 -66.2109375 179.97265625 C-72.91353421 177.69247504 -78.81610188 174.52023197 -84.8125 170.8125 C-85.88165649 170.15193604 -85.88165649 170.15193604 -86.97241211 169.47802734 C-88.68845505 168.37903367 -90.35040991 167.19642927 -92 166 C-92 165.34 -92 164.68 -92 164 C-92.99 164 -93.98 164 -95 164 C-96.72922877 162.39833729 -98.38833542 160.71991071 -100 159 C-100.80179688 158.23300781 -101.60359375 157.46601563 -102.4296875 156.67578125 C-119.15126902 140.51514735 -128.72993821 120.37930727 -129.16796875 97.07421875 C-129.17978858 94.94533536 -129.18620897 92.81641581 -129.1875 90.6875 C-129.19974609 89.63626953 -129.21199219 88.58503906 -129.22460938 87.50195312 C-129.25820509 69.28187601 -124.10979835 53.56804156 -115 38 C-114.34 38 -113.68 38 -113 38 C-113 37.01 -113 36.02 -113 35 C-112.34 35 -111.68 35 -111 35 C-110.690625 33.9790625 -110.690625 33.9790625 -110.375 32.9375 C-106.50648825 24.67295218 -98.40086787 18.09769322 -91 13 C-90.34 13 -89.68 13 -89 13 C-89 12.34 -89 11.68 -89 11 C-88.43152344 10.68546875 -87.86304688 10.3709375 -87.27734375 10.046875 C-86.11912109 9.40492187 -86.11912109 9.40492187 -84.9375 8.75 C-83.68646484 8.06164062 -83.68646484 8.06164062 -82.41015625 7.359375 C-80.53027842 6.29908734 -78.69285323 5.16342607 -76.875 4 C-54.87376194 -8.49954864 -23.30173444 -8.29628316 0 0 Z M-101 29.69140625 C-110.763703 40.96161811 -118.4498726 54.47883374 -122 69 C-122.34546875 70.16144531 -122.6909375 71.32289062 -123.046875 72.51953125 C-128.32492916 93.86025658 -122.98841719 117.58807245 -112.09570312 136.25 C-109.18430991 140.89992571 -105.71512469 144.98186869 -102 149 C-101.37609375 149.70382813 -100.7521875 150.40765625 -100.109375 151.1328125 C-86.59400929 165.61356147 -63.93376668 178.00008301 -44.00244141 179.17700195 C-14.22173382 179.75618664 8.26171649 174.08981518 30.55078125 153.4453125 C37.8626188 146.14513657 43.54217838 138.3134181 48 129 C48.36738281 128.25878906 48.73476562 127.51757812 49.11328125 126.75390625 C58.67468298 105.45302285 58.46114246 80.81450441 51 59 C47.31481798 49.61287952 42.21847722 40.93143738 36 33 C35.505 32.34128906 35.01 31.68257812 34.5 31.00390625 C25.67564277 20.0396424 13.71513907 12.61725232 1 7 C-0.16015625 6.47792969 -1.3203125 5.95585937 -2.515625 5.41796875 C-12.82085324 1.22424919 -23.19884049 0.72108535 -34.1875 0.6875 C-35.26749268 0.68210205 -36.34748535 0.6767041 -37.46020508 0.67114258 C-62.63187999 0.89145939 -83.58275683 11.67720111 -101 29.69140625 Z " fill="#33312A" transform="translate(131,7)"/>
<path d="M0 0 C2.75329021 1.79562405 4.52627461 3.05254922 6 6 C6.59300576 10.24987463 5.94176143 12.47446784 3.5 15.875 C2.68006717 16.92724714 1.85100278 17.97271807 1 19 C1.66 19.474375 2.32 19.94875 3 20.4375 C5.55323947 23.70883807 5.59300569 25.76613301 5.3671875 29.82421875 C4.77602559 33.3271675 3.70363026 34.68260263 1 37 C-13.20539346 45.21661038 -26.65024342 46.76664659 -42.6171875 43.046875 C-48.57666735 41.20260179 -54.07840431 38.68346182 -57.7734375 33.5234375 C-59.5165975 29.93719113 -59.01922304 27.80509934 -58 24 C-54.27094243 17.73518328 -47.88641786 14.39976114 -41.125 12.1875 C-32.54074746 10.05049198 -21.54575999 9.62531854 -13 12 C-12.90203125 11.38511719 -12.8040625 10.77023438 -12.703125 10.13671875 C-11.49461873 3.60453401 -11.49461873 3.60453401 -9.3125 0.9375 C-5.97532182 -0.41541007 -3.56892904 -0.43828953 0 0 Z " fill="#EE9128" transform="translate(164,71)"/>
<path d="M0 0 C2.75329021 1.79562405 4.52627461 3.05254922 6 6 C6.59300576 10.24987463 5.94176143 12.47446784 3.5 15.875 C2.68006717 16.92724714 1.85100278 17.97271807 1 19 C1.66 19.474375 2.32 19.94875 3 20.4375 C5.55323947 23.70883807 5.59300569 25.76613301 5.3671875 29.82421875 C4.77602559 33.3271675 3.70363026 34.68260263 1 37 C-13.20539346 45.21661038 -26.65024342 46.76664659 -42.6171875 43.046875 C-48.57666735 41.20260179 -54.07840431 38.68346182 -57.7734375 33.5234375 C-59.5165975 29.93719113 -59.01922304 27.80509934 -58 24 C-54.27094243 17.73518328 -47.88641786 14.39976114 -41.125 12.1875 C-32.54074746 10.05049198 -21.54575999 9.62531854 -13 12 C-12.90203125 11.38511719 -12.8040625 10.77023438 -12.703125 10.13671875 C-11.49461873 3.60453401 -11.49461873 3.60453401 -9.3125 0.9375 C-5.97532182 -0.41541007 -3.56892904 -0.43828953 0 0 Z M-51 23 C-51.61875 23.474375 -52.2375 23.94875 -52.875 24.4375 C-54.52480091 26.72889016 -54.34461 28.23481617 -54 31 C-52.29868691 32.8409336 -52.29868691 32.8409336 -49.9375 34.1875 C-49.18339844 34.67605469 -48.42929688 35.16460937 -47.65234375 35.66796875 C-36.8683953 41.08376613 -21.64750817 40.86562195 -10.125 38.0546875 C-5.46254126 36.04020125 -1.33820896 33.67641792 1 29 C1.48362193 26.41100117 1.48362193 26.41100117 0 24 C-13.69688406 12.9981047 -37.03829609 12.10306036 -51 23 Z " fill="#3A3528" transform="translate(164,71)"/>
<path d="M0 0 C3.55247432 0.87379409 4.94828114 2.4927342 6.9375 5.4765625 C7.63619998 8.31717881 7.630647 10.63523266 6.9375 13.4765625 C5 16.4765625 5 16.4765625 1.9375 18.4765625 C-1.14980397 19.03887356 -3.99295239 19.16634848 -7.0625 18.4765625 C-9.51710343 16.54874611 -10.04955472 15.51539834 -11.0625 12.4765625 C-11.54175039 8.163309 -11.53510063 6.17069468 -9.0625 2.5390625 C-5.72726514 0.24608853 -3.96242945 -0.28517485 0 0 Z " fill="#090804" transform="translate(108.0625,70.5234375)"/>
<path d="M0 0 C2.75329021 1.79562405 4.52627461 3.05254922 6 6 C6.55881444 10.09797257 6.1370529 11.76872323 4 15.375 C0.49769585 18.43951613 0.49769585 18.43951613 -3 18.625 C-5.83253187 18.37286175 -7.3634263 17.82585823 -10 16.5625 C-12.5333075 13.31669977 -12.72734602 11.23876176 -12.48046875 7.1953125 C-11.02173349 0.53019692 -6.14294206 -0.98725855 0 0 Z " fill="#090804" transform="translate(164,71)"/>
<path d="M0 0 C1.32 0 2.64 0 4 0 C3.67 1.65 3.34 3.3 3 5 C2.01 4.67 1.02 4.34 0 4 C0 2.68 0 1.36 0 0 Z " fill="#D5D5D6" transform="translate(107,76)"/>
<path d="M0 0 C1.98 0.495 1.98 0.495 4 1 C4 1.99 4 2.98 4 4 C2.35 3.67 0.7 3.34 -1 3 C-0.67 2.01 -0.34 1.02 0 0 Z " fill="#D9D9D9" transform="translate(162,76)"/>
</svg>
