<svg version="1.1" id="Layer_1" xmlns="http://www.w3.org/2000/svg" xmlns:xlink="http://www.w3.org/1999/xlink" x="0px" y="0px"
	 width="100%" viewBox="0 0 192 192" enable-background="new 0 0 192 192" xml:space="preserve">
<path fill="#000000" opacity="1.000000" stroke="none" 
	d="
M80.000000,193.000000 
	C53.687935,193.000000 27.375872,193.000000 1.031904,193.000000 
	C1.031904,129.072983 1.031904,65.145935 1.031904,1.109444 
	C64.999908,1.109444 128.999924,1.109444 193.000000,1.109444 
	C193.000000,27.104647 193.000000,53.083664 192.644547,79.443451 
	C191.167465,76.270973 190.101227,72.699127 188.915100,69.167557 
	C182.129089,48.963085 170.752121,32.114819 153.127945,19.700142 
	C141.960007,11.833309 129.546310,6.547471 116.297050,4.423365 
	C106.611458,2.870579 96.481491,3.708159 86.568581,4.042653 
	C71.068840,4.565665 57.255772,10.345712 44.768715,19.196436 
	C16.310070,39.367687 1.726694,66.663094 2.973101,101.915604 
	C3.463904,115.797150 5.728177,129.095551 12.507426,141.603424 
	C19.232981,154.012222 28.399429,163.910172 39.424171,172.474457 
	C50.331993,180.947922 62.178551,187.222046 75.721558,190.244583 
	C77.275299,190.591370 78.579887,192.054489 80.000000,193.000000 
z"/>
<path fill="#32302A" opacity="1.000000" stroke="none" 
	d="
M80.468658,193.000000 
	C78.579887,192.054489 77.275299,190.591370 75.721558,190.244583 
	C62.178551,187.222046 50.331993,180.947922 39.424171,172.474457 
	C28.399429,163.910172 19.232981,154.012222 12.507426,141.603424 
	C5.728177,129.095551 3.463904,115.797150 2.973101,101.915604 
	C1.726694,66.663094 16.310070,39.367687 44.768715,19.196436 
	C57.255772,10.345712 71.068840,4.565665 86.568581,4.042653 
	C96.481491,3.708159 106.611458,2.870579 116.297050,4.423365 
	C129.546310,6.547471 141.960007,11.833309 153.127945,19.700142 
	C170.752121,32.114819 182.129089,48.963085 188.915100,69.167557 
	C190.101227,72.699127 191.167465,76.270973 192.644547,79.912109 
	C193.000000,92.687561 193.000000,105.375122 192.644882,118.621178 
	C191.852631,119.843193 191.175003,120.453270 191.013885,121.178139 
	C187.834686,135.483047 181.543411,148.175354 171.883347,159.252914 
	C158.705307,174.364685 142.830887,185.087463 123.254913,190.103424 
	C121.379028,190.584061 119.745850,192.011887 118.000000,193.000000 
	C105.645775,193.000000 93.291542,193.000000 80.468658,193.000000 
M177.041000,55.529953 
	C154.582397,12.528495 99.387520,-4.409757 56.694447,18.597906 
	C17.338461,39.807182 -0.993259,83.941750 12.085703,125.995773 
	C22.902462,160.775909 62.671665,188.704086 99.882347,187.651535 
	C167.618790,185.735519 208.741302,115.991463 177.041000,55.529953 
z"/>
<path fill="#000000" opacity="1.000000" stroke="none" 
	d="
M118.468658,193.000000 
	C119.745850,192.011887 121.379028,190.584061 123.254913,190.103424 
	C142.830887,185.087463 158.705307,174.364685 171.883347,159.252914 
	C181.543411,148.175354 187.834686,135.483047 191.013885,121.178139 
	C191.175003,120.453270 191.852631,119.843193 192.644882,119.089836 
	C193.000000,143.594025 193.000000,168.188049 193.000000,193.000000 
	C168.312866,193.000000 143.625092,193.000000 118.468658,193.000000 
z"/>
<path fill="#FADF36" opacity="1.000000" stroke="none" 
	d="
M177.221588,55.853672 
	C208.741302,115.991463 167.618790,185.735519 99.882347,187.651535 
	C62.671665,188.704086 22.902462,160.775909 12.085703,125.995773 
	C-0.993259,83.941750 17.338461,39.807182 56.694447,18.597906 
	C99.387520,-4.409757 154.582397,12.528495 177.221588,55.853672 
M152.094025,84.096008 
	C139.890533,82.209854 127.887062,82.156357 116.465378,87.834290 
	C115.778297,88.175842 114.830261,87.992477 114.116814,87.344223 
	C117.289963,82.527916 117.208313,78.160156 113.880264,74.690331 
	C110.812965,71.492363 106.143646,70.793930 102.518959,72.990929 
	C98.463425,75.449059 96.797356,80.246605 98.454765,84.693962 
	C100.049713,88.973724 103.806114,90.847893 109.433037,90.200905 
	C110.250221,90.106934 111.080734,90.128860 111.802299,90.758453 
	C104.032028,99.299026 104.092979,105.330109 112.929230,110.100555 
	C128.806198,118.672096 145.304642,119.490578 161.549042,111.174713 
	C172.252289,105.695496 173.201309,98.651024 165.920609,89.537590 
	C167.521805,87.332825 169.799820,85.338783 170.567108,82.874382 
	C171.746994,79.084732 170.202744,75.148438 166.691650,73.537758 
	C164.052246,72.326950 160.173370,72.050903 157.500381,73.071632 
	C152.846771,74.848694 152.091629,79.318398 152.094025,84.096008 
z"/>
<path fill="#393428" opacity="1.000000" stroke="none" 
	d="
M114.003654,88.053360 
	C114.830261,87.992477 115.778297,88.175842 116.465378,87.834290 
	C127.887062,82.156357 139.890533,82.209854 152.653534,84.348694 
	C156.476501,90.449722 159.192780,91.647202 165.277542,89.920082 
	C173.201309,98.651024 172.252289,105.695496 161.549042,111.174713 
	C145.304642,119.490578 128.806198,118.672096 112.929230,110.100555 
	C104.092979,105.330109 104.032028,99.299026 112.069580,90.229797 
	C112.892464,89.151886 113.448059,88.602623 114.003654,88.053360 
M125.441772,89.695435 
	C122.136993,91.204102 118.554970,92.301971 115.584808,94.306465 
	C109.291000,98.554031 109.314476,102.961105 116.011108,106.246346 
	C130.364700,113.287949 145.163773,113.659729 159.672440,106.727730 
	C162.260803,105.491043 165.366409,101.880615 165.279984,99.472214 
	C165.193237,97.054695 161.840759,93.950348 159.181030,92.570992 
	C148.721771,87.146751 137.583740,86.620224 125.441772,89.695435 
z"/>
<path fill="#0C0C07" opacity="1.000000" stroke="none" 
	d="
M114.060234,87.698792 
	C113.448059,88.602623 112.892464,89.151886 112.120972,89.899155 
	C111.080734,90.128860 110.250221,90.106934 109.433037,90.200905 
	C103.806114,90.847893 100.049713,88.973724 98.454765,84.693962 
	C96.797356,80.246605 98.463425,75.449059 102.518959,72.990929 
	C106.143646,70.793930 110.812965,71.492363 113.880264,74.690331 
	C117.208313,78.160156 117.289963,82.527916 114.060234,87.698792 
z"/>
<path fill="#0B0B07" opacity="1.000000" stroke="none" 
	d="
M165.599075,89.728836 
	C159.192780,91.647202 156.476501,90.449722 153.072235,84.282745 
	C152.091629,79.318398 152.846771,74.848694 157.500381,73.071632 
	C160.173370,72.050903 164.052246,72.326950 166.691650,73.537758 
	C170.202744,75.148438 171.746994,79.084732 170.567108,82.874382 
	C169.799820,85.338783 167.521805,87.332825 165.599075,89.728836 
z"/>
<path fill="#EF9128" opacity="1.000000" stroke="none" 
	d="
M125.837341,89.584671 
	C137.583740,86.620224 148.721771,87.146751 159.181030,92.570992 
	C161.840759,93.950348 165.193237,97.054695 165.279984,99.472214 
	C165.366409,101.880615 162.260803,105.491043 159.672440,106.727730 
	C145.163773,113.659729 130.364700,113.287949 116.011108,106.246346 
	C109.314476,102.961105 109.291000,98.554031 115.584808,94.306465 
	C118.554970,92.301971 122.136993,91.204102 125.837341,89.584671 
z"/>
</svg>